<svg xmlns="http://www.w3.org/2000/svg" xml:space="preserve" width="571.623" height="262.393" style="shape-rendering:geometricPrecision;text-rendering:geometricPrecision;image-rendering:optimizeQuality;fill-rule:evenodd;clip-rule:evenodd" viewBox="0 0 4963.15 2278.24"><defs><style>.fil1{fill:#73bc4e}</style></defs><g id="Слой_x0020_1"><g id="_1990587774272"><path d="M484.11 1524.48c-4.19-.12-8.01-1.65-10.86-4.08-3.04-2.58-5.06-6.19-5.45-10.26-.3-3.06-.97-6.2-1.94-9.43-.99-3.29-2.29-6.6-3.79-9.94-4.18-9.29-2.97-15.62-1.5-23.25.38-1.99.79-4.09 1.05-6.05.42-3.13-.63-6.24-2.55-8.95-2.35-3.31-5.95-5.98-9.85-7.47-6.1-2.32-9.62-7.93-14.51-15.71-4.85-7.74-11.32-18.04-22.99-28.61-16.87-15.27-16.96-24.66-17.06-36.1-.04-4.79-.1-10.04-2-16.45-2.31-7.75-8.15-10.79-14.19-13.95-8.83-4.6-18-9.39-22.4-24.53-3.19-10.99-11.89-19.44-19.73-27.06-8.96-8.7-16.98-16.5-17.53-27.35l-.54-12.05c-.28-7.05-.44-10.93-1.67-23.76-.46-4.77-1.06-8.84-1.57-12.24-1.46-9.75-2.18-14.58 1.96-24.92 2.42-6.05 2.2-7.76 1.91-9.99-.31-2.38-.66-5.12-.06-9.96.93-7.4 5.18-11.69 9.8-16.32 3.24-3.26 6.73-6.76 8.28-11.66 1.61-5.07.79-9.31.13-12.76-.96-5-1.74-9.02 1.35-13.36-.57-.41-1.32-.8-2.22-1.14-3.57-1.35-8.79-1.66-14.53.37-3.98 1.41-7.02 3.3-9.72 4.97-8.73 5.43-14.9 9.26-33.55.32-11.28-5.41-17.03-4.71-23.99-3.87-6.2.75-13.22 1.6-24.48-.39-25.97-4.61-26.88-6.16-33.84-18.23l-1.33-2.27c-6.19-10.63-7.6-13.04-15.16-22.37-6.18-7.62-6.4-7.65-11.16-8.11l-.96-.09c-4.77-.47-8.27-3.07-10.1-6.41-.94-1.75-1.43-3.68-1.43-5.63-.02-1.99.5-3.99 1.59-5.83 1.99-3.35 5.8-6.06 11.66-6.69l3.88-.4c7.68-.8 10.17-1.06 19.13-3.05 3.64-.8 6.42-1.11 8.82-1.36 3.91-.42 6.45-.69 9.63-4.1 1.21-1.3 2.24-2.64 3.2-3.88 4.89-6.38 8.46-11.03 24.66-11.03l5.11.06c12.27.12 19.68.2 29.15-9.41 5.8-5.88 15.29-8.6 25.38-9.55 15.52-1.47 32.95 1.12 38.5 2.42 3.87.9 6.73 3.07 10.18 5.69 5.47 4.15 12.91 9.79 29.18 10.03 10.97.16 22.54-1.57 32.27-3.9 11.65-2.78 19.96-5.37 20.19-6.06.43-1.26 1.08-2.55 1.8-3.96l1.17-2.36c-3.9-.33-7.75-1.55-11-3.18-2.64-1.32-4.95-2.95-6.62-4.61-2.35-2.34-3.72-5.02-3.72-7.69 0-1.19.27-2.38.84-3.52 2.93-5.79 11.09-4.32 21.79-2.4 6.66 1.2 14.66 2.64 21.85 2.8 10.75.25 13.19 2.8 15.91 5.65 1.22 1.27 2.58 2.7 10.42 3.49 13.6 1.37 17.52 7.77 21.05 13.54 1.54 2.51 2.95 4.81 6.1 5.09l6.25.6c7.6.78 10.65 1.1 18.39-1.19 1.08-.32 2.16-.5 3.23-.55 5.66-.25 10.25 2.96 13.81 7.82 2.88 3.95 5.12 9.11 6.59 14.06 1.2 4.07 1.92 8.12 2.06 11.3.09 2.03.34 4.43.59 6.89 1.05 10.36 2.19 21.61-5.44 26.64-.1.5-.02 1.25.19 2.12.33 1.34.96 2.76 1.77 4.04 1.11 1.73 2.36 3.07 3.36 3.4 1.38.45 2.9.56 4.51.68 4.92.37 10.42.79 20.41 7.39 5.18 3.42 11.29 5.36 17.54 6.12 7.31.89 14.75.19 21.16-1.58 4.22-1.16 5.49-.72 5.41-.98-.12-.49-.9-1.59-1.64-2.64l-.11-.18c-2.02-2.85-4.6-9.5-6.13-16.03-1.28-5.48-1.92-11.21-1.06-15.18.23-1.04-2.08-.13-4.02-1.35-1.91-1.21-3.87-2.45-5.58-3.95-5.13-4.49-7.5-9.73-1.28-16.83 1.53-1.75-2.14-5.11-7.2-9.72-4.59-4.19-9.93-9.06-14.33-15.4-4.39-6.35-14.16-14.74-23.24-22.55-14.1-12.12-26.85-23.09-20.95-30.97 4.45-5.92 11.05-4.99 16.8-4.17l.62.09-.16-.7c-.22-.95-.42-1.85-.55-2.84-.83-6.23.54-10.42 10.94-11.81l2.66-.3c-4.37-3.55-8.28-8.23-6.33-16.45l.01-.14c-.24-.58-1.02-1.26-2.15-1.95-1.67-.99-3.88-1.81-6.35-2.4-5.83-1.38-12.71-1.37-17.63.62-2.13.86-4.28 1.85-6.27 2.77-12.1 5.58-20.06 9.24-28.54-5.52-4.97-8.64-5.85-8.8-12.61-9.96l-3.98-.71c-6.53-1.23-10.59-6.7-12.78-13.63-1.4-4.43-2.06-9.63-2.11-14.47-.06-4.88.53-9.52 1.58-12.78 1.36-4.22 3.82-7.02 7.33-7.5 3.23-.45 6.41.45 9.7 1.38 2.94.83 6.09 1.72 6.59 1.01l-.62-1.18c-2.44-4.94-4.8-9.73 4.36-16.3 6.27-4.51 9.65-5.2 12.94-5.87 1.5-.31 2.97-.61 5.08-1.83 1.01-.59 1.81-1.11 2.51-1.56 5.67-3.7 7.46-4.86 23.3-1.47 6.04 1.29 9.81.63 12.64.13 6.13-1.08 9.81-1.73 16.08 5.4 1.69 1.92 3.05 3.64 4.19 5.1 1.85 2.36 2.54 3.23 4.21 2.45l1.43-.66c8.69-4.1 11.99-5.65 23.11 3.56 1.54 1.27 5.07.1 9.91-1.51 8.85-2.94 20.67-6.86 37.69-2.84 4.83 1.14 9.23 1.83 13.17 2.15 8.01.65 14.02-.2 18.09-1.81 2.94-1.16 4.53-2.46 4.78-3.56l.01-.05c.09-1.16-1.62-3.84-3.34-6.53-4.44-6.94-8.92-13.97-1.83-21.12l.03-.04c.18-.63-.22-1.8-.93-3.18-1.08-2.09-2.79-4.23-4.63-6.05-2.05-2.03-4.02-3.51-5.16-3.86-3.36-1.04-5.93-3.51-6.96-6.47-.69-1.98-.71-4.14.1-6.26.71-1.86 2.02-3.58 4.04-4.94 3.76-2.52 10.85-4.12 22.53-2.55 11.3 1.52 18.84 2.22 26.42 1.43 7.59-.8 15.6-3.14 27.91-7.72 13.1-4.87 24.22-8.6 32.97-10 10.68-1.7 18.42-.03 22.71 6.78 2.09 3.33 2.95 6.42 3.74 9.27 1 3.62 1.8 6.51 10.71 6.51 4.19 0 6.61-.06 8.76-.11 12.84-.3 19.05-.44 35.6 7.25 6.96 3.23 10.4-.15 13.33-3.02 4.93-4.84 9.21-9.03 17.65-4.46 5.6 3.04 8.63 6.2 11.45 9.13 2.55 2.66 4.88 5.09 9.52 6.53 6.44 2.01 17.81 8.28 29.48 16.44 9.81 6.87 19.97 15.14 27.74 23.42 6.39 6.8 8.91 5.95 12.53 4.71 5.5-1.88 12.4-4.23 25.16-.17 9.05 2.88 12.05 1.9 15.06.92 5.73-1.88 11.53-3.77 31.11 3.95 11.44 4.51 19.94 9.03 26.88 12.74 11.12 5.93 17.69 9.42 27.43 6.63 6.06-1.74 12.7-3.99 19.41-6.27 14.01-4.76 28.4-9.64 39.4-10.58 2.9-.25 5.1-.5 7.01-.72 10.26-1.17 13.68-1.57 28.49 4.89 7.36 3.21 19.47 5.52 31.13 6.64 12.14 1.16 23.42 1.06 27.81-.66 1.78-.7 2.95-2.1 3.55-3.7.34-.92.52-1.95.52-2.98 0-.98-.16-1.91-.47-2.69-.34-.88-.84-1.55-1.42-1.77-3.21-1.19-5.85-2.8-7.68-4.65-1.8-1.81-2.92-3.91-3.24-6.21-.35-2.52.27-5 1.99-7.32 1.28-1.73 3.22-3.35 5.88-4.75 5.16-2.71 12.09-5.24 20.02-5.6 6.11-.28 12.77.72 19.59 3.88 11.63 5.39 18.86 7.22 27.97 9.52l3.76.95c9.31 2.42 10.7 8.34 11.9 13.5.2.88-.26 1.64.06 1.64l5.38-.05c14.92-.24 48.98-.8 66.61 3.95l8.79 2.44c12.43 3.5 18.47 5.2 37.79 5.83 12.12.39 17.08-1.17 23.22-3.11 5.76-1.81 12.46-3.94 25.69-5.32l3.15-.33c11.85-1.25 17.55-1.85 22.8-1.4 5.02.44 9.04 1.75 16.78 4.27l5.14 1.67c2.74.88 5.46 1.52 8.09 1.91 6.55.98 12.18.36 16.43-1.63 3.81-1.79 6.56-4.78 7.84-8.76.26-.79.47-1.7.62-2.71l.26-1.97c.58-5.93-.36-10.81-2.19-14.26-1.41-2.66-3.25-4.3-5.09-4.62l-.43-.05c-3.89-.43-6.69-2.28-8.38-4.91-1.19-1.86-1.75-4.04-1.67-6.3.08-1.99.65-4.05 1.73-5.99 2.14-3.86 6.37-7.39 12.55-8.73 2.94-.63 6.4-1.88 9.98-3.17 10.84-3.91 22.7-8.19 31.13-1.5 3.73 2.95 8.63 5.6 16.04 8.54 7.75 3.07 18.25 6.46 32.86 10.78 22.16 6.56 27.68 17.46 32.05 26.09 1.54 3.05 2.89 5.71 4.68 6.93 3.13 2.14 5.36 4.57 7.67 7.11 4.7 5.16 9.9 10.86 25.36 11.69 13.02.69 25.15 3.3 34.56 7.1 10.28 4.15 17.68 9.98 20.21 16.71 1.21 3.2 3.81 5.31 7.2 6.3 4.21 1.23 9.61.89 15.32-1.03 1.53-.51 3.23-1.16 4.88-1.79 3.39-1.3 6.63-2.53 9.97-3.15 10.4-1.96 18.57 1.32 22.41 21.76 4.73 25.21-7.67 27.65-16.37 29.36l-.25.05c.67 1.11 1.64 2.28 2.85 3.36 2.4 2.14 5.63 3.85 9.16 4 7.79.33 25.92 5.25 40.3 11.65 11.51 5.12 21.11 11.58 22.95 18.36 2.5 9.21.1 13.34-2.92 18.5-1.35 2.31-2.89 4.96-3.7 8.78-2 9.39-6.05 12.8-10.28 16.37-1.7 1.43-3.44 2.9-4.81 5-1.27 1.96-1.83 3.72-2.26 5.12-1.84 5.94-2.79 9.01-12.84 9.01h-.71c-2.99-.03-3.01-.02-3.81 8.6-.38 4.1 1.78 5.59 4.3 7.32 4.5 3.1 9.6 6.61 12.06 16.07 1.3 5.03 3.14 7.96 4.69 10.44 3.7 5.87 6.28 10 2.89 22.96l-1.24 4.95c-1.44 5.89-2.17 8.83-4.92 11.83-2.48 2.72-5.67 4.24-11.98 7.27l-6.29 3.06c-8.85 4.37-11.66 8.4-13.65 11.27-3.37 4.85-5.45 7.84-14.51 7.54-3.51-.12-6.33-1.32-8.5-3.27-2.69-2.41-4.13-5.79-4.56-9.55-.36-3.12-.01-6.61.9-9.94 1.57-5.75 4.93-11.28 9.21-14.03 2.93-1.88 2.94-2.72 2.98-7.68.03-3.61.08-8.57.62-15.26.65-7.9-.36-9.73-2-9.86-1.44-.11-3.27.07-5.18.25-2.31.23-4.74.47-7.34.38-6.84-.25-12.18-1.87-15.61-5.43-3.78-3.93-4.87-9.44-2.66-17 1.31-4.49 3.51-7.79 5.39-10.61.72-1.09 1.4-2.11 1.73-2.73.02-.05-.24-.23-1.62-.97-2.47-1.32-4.33-2.48-5.94-3.5-4.52-2.85-6.5-4.09-17.33.21-4.47 1.78-8.58 3.68-12.13 5.33-10.35 4.8-16.7 7.74-24.56 4.05-7.24-3.4-7.92-7.23-5.36-12.66.74-1.55 1.72-2.92 2.88-4.55 1.56-2.17 3.53-4.94 4.92-8.39 1.15-2.86 1.99-5.39 2.46-7.5-3.2 5.62-7.5 12.42-19.58 13.03-5.53.28-8.41 4.14-11.61 8.43-4.05 5.43-8.48 11.37-17.84 14.96-5.43 2.08-9.16 4.84-11.31 7.63-.95 1.23-1.54 2.42-1.78 3.47-.17.74-.16 1.39.02 1.86.11.3.35.6.7.87.71.54 3.18.35 5.69.15 8.62-.68 17.6-1.4 20.55 13.61.09.48.16.63.21.63 2.48-.49 6.26-2.67 10-4.83 6.85-3.96 13.62-7.87 19.59-5.64 5.35 2 6.87 4.62 8.58 7.56 1.21 2.08 2.63 4.53 11.07 6.96 5.28 1.52 8.47 3.49 10 5.59 2.29 3.19 2.07 6.28-.22 9.14-1.19 1.48-3.05 2.7-5.39 3.58-5.54 2.07-15.88 2.98-26.09 1.25-3.93-.67-7.54-.71-10.7-.29-4.02.54-7.31 1.83-9.62 3.57-1.87 1.42-3.05 3.06-3.32 4.68-.08.47-.09.96-.03 1.42.14 1.08 1.87 1.77 3.9 2.58 5.85 2.33 12.79 5.11 16.02 16.88 2 7.28 1.67 13.05 1.4 17.64-.19 3.37-.31 5.41 2.55 5.93 1.99.36 4.05.86 6.12 1.44 6.38 1.8 13.32 4.58 18.62 7.3 7.21 3.69 11.93 8.33 11.14 12.57l-.13.59c-.73 2.58-2.38 3.98-4.22 5.51l-1.24 1.09c-.17.16-.11.56 1.36 2.07 5.64 5.81 7.65 10.54 6.99 15.02-.4 2.67-1.63 4.85-3.53 6.8l2.01.89c10.12 4.57 23.75 10.73 23.37 22.31-.11 3.4 1.8 6.03 3.43 8.28 5.12 7.05 8.93 12.31-4.31 22.64-5.64 4.4-6.37 10.39-7.13 16.7-.98 8.08-2.01 16.58-10.06 25.11-6.95 7.37-15.44 12.21-23.23 16.65-7.83 4.46-14.87 8.48-17.22 13.59-5.71 12.41-13.03 14.1-23.53 16.52-2.41.55-5.04 1.16-7.75 1.97-7.82 2.31-14 .28-19.29-1.45-3.03-.99-5.47-1.79-6.46-.22-1.71 2.71-2.48 5.26-3.12 7.4-2.04 6.82-3.36 11.18-15.14 13.05-4.98.79-9.84 2.49-13.32 4.58-1.42.85-2.53 1.72-3.18 2.55 1.18 2.12 2.1 4.47 2.62 6.8.6 2.7.67 5.46.02 7.97-.78 3.05-2.5 5.63-5.39 7.37-1.18.69-2.53 1.23-4.06 1.58-7.58 1.68-11.01-4.57-14.94-11.72-2.55-4.63-5.47-9.95-8.53-10.38-2.58-.37-5.09-.89-7.62-1.41-7.9-1.64-16.19-3.36-27.54.73-5.21 1.87-5.78 3.59-6.44 5.59-1.59 4.82-3.45 10.45-16.53 17.12-7.81 3.98-9.41 6.37-8.11 8.93 1.31 2.57 4.09 5.88 7.46 9.9 1.73 2.06 3.62 4.32 5.67 6.89 8.58 10.81 9.31 16.59 9.79 20.4.09.77.15 1.21 1.45 1.93 1.47.82 5.19 2.15 9.85 3.82 17.84 6.37 48.12 17.17 51.04 36.84 1.34 9.02 3.99 13.35 6.17 16.92 3.21 5.25 5.71 9.34 4.56 19.07-1.09 9.2-4.76 13.05-8.06 16.51-1.87 1.96-3.52 3.7-3.09 8 1.35 13.57-10.45 15.88-22.55 18.25-5.23 1.02-10.55 2.07-13.26 4.03-2.26 1.64-2.89 4.58-3.49 7.46-1.58 7.5-3.13 14.83-17.04 17.68-8.26 1.69-14.03 3.36-18.38 5.31-3.99 1.79-6.82 3.89-9.45 6.55-3.09 3.14-6.38 3.9-9.44 3.02-2.02-.58-3.66-1.86-4.87-3.62-.89-1.29-1.56-2.86-1.95-4.56-1.18-5.02-.13-12.26 4.34-17.08.38-.41.69-.82.91-1.21.72-1.26.82-2.66.5-3.98-.38-1.55-1.32-3.03-2.54-4.16-.41-.4-.94-.78-1.52-1.11-5.15-2.96-5.64-6.61-6.11-10.04-.04-.32-.09-.62-1.27-.71-10.35-.8-11.47-3.5-14.23-10.2-.81-1.98-1.88-4.57-4.03-7.9-4.03-6.27-12.84-17.57-21.24-25.74-5.07-4.93-9.57-8.56-11.6-8.47-1.25.05-1.51.37-1.47 1.52.07 1.55.26 3.54.5 5.94.25 2.45.52 5.25.71 7.74.64 8.3-.75 18.17-1.96 26.77-1.05 7.48-6.08 12.74-4 13.17 1.08.22 3.09.1 5.11-.01 8.01-.47 16.24-.95 16.9 9.69.09 1.46.13 3.29.17 5.21.11 5.78.26 12.74 3.13 21.5l.7 2.14c2.59 8 3.39 10.47 10.85 11.74 10.21 1.75 14.1 9.13 17.99 16.5 1.62 3.07 3.25 6.15 5.18 8.09 1.35 1.34 3.66 3.07 6.26 5 10.72 7.96 25.55 19 21.15 36.17-2.31 8.93 2.79 18.32 7.02 26.12 2.98 5.46 5.61 10.3 6.05 15.15.52 5.78-1.55 8.48-5.87 8.88-3.89.35-6.93-2.93-11.11-7.47-4.22-4.58-10.17-11.05-16.48-14.44-3.77-2.03-7.66-3.54-11.35-4.96-11.75-4.55-21.85-8.46-25.46-23.78-4.01-17.02-9.22-22.13-28.26-40.81l-10.85-10.69c-4.84-4.82-8.94-10.22-12.07-16.01-3.07-5.66-5.23-11.73-6.28-18.05-2.21-13.2-.61-24.76.77-34.72.81-5.84 1.53-11.09 1.23-15.37-.37-5.37-1.58-9.88-3.34-12.32l-.56-.65-.34.23c-1.5 1.08-3.25 3.1-4.8 4.9-2.96 3.42-5.51 6.38-9.36 6.58-5.06.26-8.26-3.27-8.8-13.88l-.28-6.59c-.36-9.31-.38-9.72-6.45-19.61-7.7-12.5-6.12-16.81-2.7-26.11.8-2.18 1.73-4.7 2.52-7.44 1.04-3.59 1.1-8.44.51-13.39-.6-5.09-1.87-10.1-3.45-13.93-.82-1.98-1.5-3.48-1.94-4.2-.35.29-.61.75-.84 1.36-.92 2.52-1.32 6.69-1.73 11.99-.26 3.34-.87 6.27-1.7 8.76-1.23 3.69-3.02 6.5-4.97 8.39-2.6 2.52-5.63 3.64-8.52 3.42-.78-.06-1.51-.21-2.21-.44-3.32-1.12-5.26-4.13-8.25-8.76-3.55-5.5-9.11-14.12-19.26-23.36-16.04-14.61-16.73-17.22-19.95-29.42l-1.78-6.55c-1.84-6.33-9.24-9.35-15.86-12.04-8.62-3.51-16.36-6.67-17.36-15.87-.26-2.43-.32-4.74-.36-6.82-.11-5.13-.19-8.1-11.53-9.44-10.33-1.22-12.41-.75-16.78.26-4.09.94-9.85 2.26-22.67 3.33-13.51 1.12-23.65 3.79-31.79 7.91-8 4.05-14.24 9.61-20.01 16.56-2.6 3.13-4.34 5.44-5.61 7.13-2.21 2.93-3.35 4.44-5.47 5.78-2.25 1.42-4.22 1.76-8.28 2.43-1.6.27-3.65.61-7.16 1.31-5.75 1.15-7.39 5.03-9.16 9.2-3 7.1-6.24 14.74-19.28 18.77-8.9 2.75-17.67 9.38-25.94 15.62-9.94 7.51-19.23 14.53-29.18 15.51-.54.05-.69.25-.66.51.19 2 1.23 5.03 2.33 8.28 2.95 8.67 6.32 18.56.82 27.05l-2.01 3.08c-6.48 9.91-10.07 15.4-8.69 26.78.99 8.17-3.71 18.92-10.14 28.32-7.64 11.18-18.29 21.01-24.74 22.38-1.48.32-3.33 1.86-5.01 3.27-2.2 1.83-4.24 3.53-6.93 4.31-6.33 1.84-11.67-1.12-16.21-16.77-4.55-15.65-11.77-25.34-17.93-33.59-3.11-4.18-5.99-8.03-8.37-12.4-4.91-9.01-7.9-20.78-10.34-30.39-1.11-4.36-2.1-8.28-3.01-10.93-.57-1.67-2.82-4.16-5.57-7.2-7.89-8.74-19.13-21.18-20.15-44.72-.4-9.36-.65-17.12-.86-23.63-.45-14.02-.71-22.09-2.22-32.02-.83-5.46-3.29-9.35-5.78-11.5l-.76-.6-1.16 1.55c-2.26 2.75-5.85 5.79-10.17 7.63-4.61 1.97-10.08 2.67-15.8.53-2.23-.84-4.48-2.12-6.66-3.92-10.84-8.91-8.5-15.84-3.94-21.38 1.11-1.36 2.22-2.41 3.24-3.37.77-.73 1.48-1.4 1.56-1.55 1.91-3.4-3.91 4.24-5.77 3.92-6.22-1.1-14.55-1.88-21.34-2.46-9.76-.84-13.74-7.63-18.01-14.93-3.03-5.17-6.28-10.73-12.29-12.17-7.22-1.73-10.15-4.02-12.83-6.13-3-2.36-5.56-4.36-24.76-3.22-19.18 1.14-22.86-1.78-26.94-5.02-2.35-1.86-4.94-3.92-19.84-4.09-11.98-.14-20.85.9-28.04 1.74-14.07 1.64-22.4 2.62-36.04-5.75-10-6.13-11.15-13.56-12.13-19.96-.67-4.34-1.19-7.71-15.96-6.18-4.24.44-9 1.03-13.43 1.59-26.77 3.32-40.63 5.04-61.76-16.36-10.71-10.85-20.21-13.48-27.95-15.62-8.75-2.42-15.75-4.36-21.12-13.67-1.41-2.47-3.31-4.14-5.41-5.14-2.28-1.08-4.89-1.42-7.5-1.18-2.74.26-5.47 1.16-7.86 2.53-2.7 1.57-4.89 3.7-6.04 6.13l-.22.52c-1.74 4.72-.28 12.78 3.58 20.81 4.01 8.33 10.58 16.27 18.87 20.19.63.31 1.37.61 2.2.92 12.73 4.71 15.7 9.6 18.07 13.51 1.02 1.68 1.8 2.96 7.36 3.61 11.6 1.36 13.58 8.28 12.64 16.29-.32 2.77-1.05 5.45-1.73 7.96-.56 2.1-5.16 2.25-3.11 3.1.95.38 2.49-.11 4.31-.7 4.66-1.5 10.27-3.31 19.4-.23 5.65 1.9 8.42 3.9 10.36 5.29.59.43.77.55 4.96-1.45 3.44-1.64 4.5-3.81 5.54-5.94 2.36-4.83 4.68-9.56 15.44-12.65 3.96-1.14 4.26-4.65 4.5-7.5.11-1.35.22-2.63.51-3.97 1.28-5.98 4.18-9.61 13.39-7.64 10.42 2.23 12.35 11.63 14.28 21.13 1.14 5.6 2.31 11.28 5.14 12.54 2.9 1.29 7.28 1.61 11.8 1.94 11.8.86 24.39 1.78 30.49 17.03 2.53 6.33 6.26 10.34 9.01 13.28 1.26 1.35 2.36 2.53 3.34 3.89 4.25 5.9 4.29 10.27-4.52 16.59-2.54 1.82-4.2 2.95-5.66 3.95-5.55 3.8-7.34 5.02-8.05 9.66-1.59 10.35-8.69 9.15-16.38 7.86-2.61-.44-5.41-.91-5.66-.57-.94 1.29-.2 5.86.49 10.1 1.36 8.41 2.6 16.12-5.75 18.59-3.38 1-5.85.74-8.07.5-1.13-.12-2.03-.21-3.69 2.73-1.01 1.75-1.81 4.13-2.61 6.51-3.47 10.33-7.05 20.96-27.62 20.2-9.16-.34-12.09 2.34-15.12 5.12-4.09 3.74-8.33 7.61-18.89 8.73-6.26.66-7.33 2.51-8.48 4.5-2.63 4.55-5.46 9.43-18.82 11.7-9.57 1.63-14.5.68-18.94-.18-4.82-.93-8.88-1.71-22.58 4.16-10.91 4.68-15.61 9.12-19.31 12.63-5.69 5.39-9.6 9.11-22.91 9.62-10.76.41-15.24 3.78-19.56 7.03-3.61 2.71-7.15 5.38-12.97 7.04-2.86.82-5.87 1.34-8.82 1.65-3.46.36-6.86.43-9.89.34zm-3.4-12.9c.95.81 2.26 1.33 3.69 1.37 2.57.07 5.44.01 8.38-.29 2.29-.25 4.63-.66 6.88-1.3 3.84-1.09 6.5-3.09 9.22-5.14 5.73-4.31 11.67-8.77 26.07-9.33 8.9-.34 11.53-2.84 15.35-6.45 4.36-4.14 9.9-9.38 22.74-14.89 16.95-7.26 22.58-6.18 29.27-4.89 3.49.67 7.36 1.42 14.87.14 7.98-1.36 9.4-3.81 10.72-6.1 2.67-4.61 5.16-8.91 17.3-10.19 6.78-.72 9.59-3.28 12.28-5.74 4.82-4.41 9.47-8.66 23.31-8.15 11.97.44 14.15-6.04 16.27-12.33.96-2.86 1.92-5.7 3.49-8.49 5.38-9.6 9.61-9.15 14.98-8.57 1.14.12 2.41.26 3.59-.09 1.39-.41-1.87-2.51-2.39-5.7-1.05-6.5-2.18-13.52 1.59-18.7 4.46-6.12 10.87-5.04 16.87-4.03 1.68.28 2.85 3.07 3.04 1.81 1.48-9.61 4.27-11.53 12.98-17.48l5.43-3.77c1.19-.86 2.15-.12 1.88-.5-.45-.65-1.36-1.63-2.42-2.76-3.36-3.61-7.93-8.52-11.27-16.85-3.42-8.54-12.28-9.19-20.59-9.8-5.5-.4-10.84-.79-15.65-2.93-8.3-3.69-10.06-12.28-11.79-20.78-1.16-5.68-2.31-11.31-5.24-12.09l-.11 1.23c-.54 6.42-1.21 14.32-12.86 17.67-5.84 1.68-7.04 4.11-8.25 6.59-1.92 3.91-3.87 7.91-10.92 11.27-10.34 4.95-11.76 3.93-16.67.41-1.35-.96-3.27-2.35-7.28-3.7-5.56-1.87-9.2-.71-12.22.27-4.01 1.29-7.4 2.39-12.24.38-7.36-3.04-5.62-9.44-3.65-16.76.58-2.13 1.19-4.41 1.41-6.29.2-1.73-.18-3.23-2.47-3.49-11.16-1.3-13.21-4.68-15.91-9.12-1.43-2.36-3.23-5.31-12.19-8.63-.97-.36-2.02-.81-3.12-1.33-10.92-5.15-19.34-15.18-24.37-25.61-5.17-10.73-6.83-22.25-4.03-29.81l.62-1.47c2.18-4.62 6.05-8.5 10.7-11.19 3.8-2.18 8.18-3.62 12.6-4.03 4.57-.42 9.24.23 13.46 2.22 4.11 1.94 7.77 5.14 10.47 9.8 3.04 5.23 8 6.61 14.21 8.33 9.08 2.51 20.2 5.59 33.1 18.65 17.1 17.31 29.05 15.83 52.13 12.96 3.88-.48 8.09-1.01 13.66-1.59 25.71-2.66 26.96 5.45 28.57 15.94.6 3.94 1.31 8.51 6.7 11.82 10.25 6.28 17.12 5.48 28.72 4.12 7.4-.87 16.54-1.94 29.44-1.79 18.93.22 23.14 3.55 26.95 6.58 2.26 1.8 4.3 3.41 19.07 2.53 23.58-1.39 27.72 1.84 32.58 5.66 1.76 1.38 3.67 2.88 8.35 4 10.81 2.59 15.35 10.34 19.57 17.55 2.7 4.61 5.22 8.91 9.01 9.23 7.03.6 15.67 1.41 22.38 2.6 11.08 1.95 18.01 5.77 13.86 13.13-.93 1.65-2.25 2.9-3.7 4.29-.83.78-1.7 1.61-2.27 2.3-.8.98-.95 2.42 2.36 5.15 1.16.95 2.3 1.61 3.38 2.02 2.54.95 5.06.59 7.24-.34 2.47-1.05 4.52-2.78 5.79-4.33.47-.57.76-1 .85-1.24.8-2.16 2.29-3.69 4.27-4.56 2.18-.98 4.77-.99 7.4-.07 1.9.66 3.93 1.85 5.86 3.52 4.22 3.66 8.36 9.98 9.66 18.5 1.57 10.33 1.84 18.75 2.31 33.38.2 6.28.44 13.76.86 23.5.84 19.42 10.44 30.04 17.17 37.49 3.66 4.05 6.65 7.35 7.97 11.23 1.1 3.22 2.13 7.27 3.28 11.79 2.29 9.04 5.11 20.11 9.25 27.72 1.89 3.47 4.59 7.08 7.51 11.01 6.7 8.99 14.57 19.54 19.73 37.3 2 6.89 1.56 9.01 1.92 8.9.38-.11 1.53-1.07 2.77-2.1 2.74-2.28 5.77-4.81 9.99-5.7 3.81-.8 11.4-8.54 17.59-17.59 5.06-7.4 8.82-15.33 8.2-20.45-1.89-15.54 2.53-22.29 10.49-34.45l2.01-3.06c2.44-3.76.03-10.85-2.09-17.06-1.3-3.83-2.53-7.42-2.87-10.86-.72-7.21 1.67-12.2 11.02-13.12 6.67-.66 14.73-6.74 23.35-13.25 9.02-6.82 18.61-14.06 29.51-17.43 7.92-2.44 10.06-7.5 12.05-12.21 3.01-7.12 5.81-13.74 17.52-16.08 2.77-.55 5.47-1 7.53-1.35 2.51-.41 3.72-.62 4.02-.81.27-.17 1-1.13 2.39-2.98 1.35-1.79 3.17-4.21 5.94-7.54 6.72-8.1 14.1-14.63 23.72-19.5 9.48-4.79 20.99-7.88 36.03-9.13 12.1-1 17.33-2.21 21.04-3.06 5.71-1.32 8.42-1.94 20.72-.48 21.28 2.51 21.45 9.18 21.7 20.7.04 1.74.09 3.66.32 5.82.25 2.31 4.97 4.24 10.22 6.38 9.08 3.7 19.23 7.84 22.62 19.6l1.84 6.77c2.5 9.48 3.04 11.5 16.56 23.82 11.26 10.25 17.33 19.66 21.2 25.67 1 1.55 1.37 2.63 1.62 3.28.59-.74 1.16-1.83 1.65-3.31.53-1.59.93-3.57 1.11-5.95.48-6.19.98-11.15 2.4-15.06 1.97-5.4 5.26-8.57 11.16-9.27 1.13-.13 2.25-.03 3.33.28 3.97 1.16 7.38 5.51 9.81 11.38 1.98 4.8 3.54 10.91 4.26 16.96.74 6.3.59 12.75-.92 17.96-1.01 3.5-1.95 6.03-2.74 8.21-2.1 5.7-3.06 8.35 1.69 16.08 7.64 12.47 7.66 13 8.14 25.26l.19 4.47c1.44-1.58 3.01-3.15 4.79-4.43 2.15-1.55 4.32-2.35 6.47-2.5 2.27-.15 4.37.39 6.28 1.52 1.59.95 3.03 2.31 4.26 4.02 3.01 4.16 4.99 10.86 5.51 18.29.37 5.39-.43 11.23-1.33 17.72-1.27 9.16-2.73 19.77-.81 31.24.84 5.01 2.58 9.89 5.06 14.47 2.59 4.8 6.01 9.28 10.04 13.3l10.8 10.65c20.93 20.52 26.65 26.14 31.43 46.41 2.21 9.39 9.67 12.28 18.35 15.64 4.06 1.57 8.34 3.23 12.66 5.55 2.6 1.4 5.07 3.11 7.37 4.97-3.55-7.67-6.09-16.32-3.65-25.87 2.46-9.71-8.74-18.04-16.83-24.06-2.97-2.21-5.61-4.18-7.53-6.09-3.21-3.21-5.24-7.05-7.27-10.89-2.55-4.84-5.12-9.7-9.71-10.48-14.32-2.44-15.65-6.49-19.88-19.57l-.7-2.14c-3.38-10.32-3.54-18.26-3.68-24.85-.03-1.58-.06-3.08-.17-4.76-.05-.88-2.35 1.03-4.7 1.16-2.78.16-5.51.32-8.09-.21-8.55-1.75-7.01-12.68-5.14-26.06 1.13-8 2.41-17.19 1.86-24.33-.25-3.31-.48-5.57-.66-7.48-.25-2.63-.47-4.77-.54-6.62-.44-10.24 1.77-13.05 12.55-13.5 5.67-.24 12.98 4.8 20.1 11.73 9.04 8.79 18.55 20.99 22.91 27.77 2.66 4.13 3.98 7.32 4.98 9.76.82 2 1.16 2.8 4.42 3.05 10.51.81 11.16 5.54 11.85 10.7.09.69.2 1.42.39 1.53a19.3 19.3 0 0 1 3.64 2.69c2.82 2.6 4.98 6.08 5.91 9.87.99 4.02.64 8.38-1.67 12.43-.67 1.18-1.5 2.32-2.49 3.38-.85.92-1.36 2.12-1.59 3.33 2.77-2.32 5.87-4.29 9.79-6.05 5.13-2.3 11.64-4.21 20.78-6.08 6.47-1.33 7.25-4.98 8.04-8.73 1.06-5.06 2.16-10.21 8.01-14.47 4.77-3.47 11.36-4.76 17.83-6.03 6.88-1.35 13.59-2.66 13.29-5.77-.95-9.57 2.41-13.1 6.21-17.09 2.04-2.14 4.3-4.51 4.94-9.91.68-5.79-.9-8.38-2.93-11.7-2.74-4.49-6.07-9.92-7.75-21.25-1.9-12.77-28.07-22.11-43.49-27.61-5.14-1.83-9.23-3.3-11.61-4.63-6.34-3.55-6.68-6.12-7.24-10.57-.32-2.51-.81-6.34-7.4-14.65-1.87-2.36-3.76-4.6-5.49-6.67-3.85-4.58-7.01-8.35-8.91-12.07-4.84-9.49-2.66-16.41 13.18-24.49 8.83-4.51 9.89-7.7 10.79-10.42 1.61-4.89 2.98-9.04 13.53-12.83 14.44-5.2 24.34-3.14 33.78-1.18 2.32.48 4.61.96 6.9 1.28 8.79 1.25 13.19 9.26 17.03 16.25 1.71 3.11 1.44 6.22 2.32 6.02.25-.05.44-.13.58-.21.08-.06.14-.18.18-.35.17-.67.11-1.59-.11-2.61-.3-1.35-.89-2.78-1.67-4.07a9.8 9.8 0 0 1-1.34-3.65c-.49-3.13.48-6.06 2.55-8.69 1.52-1.93 3.72-3.74 6.37-5.33 4.66-2.8 11.02-5.05 17.44-6.07 4.6-.72 5.1-2.38 5.87-4.96.84-2.8 1.85-6.15 4.43-10.25 5.8-9.21 12.03-7.17 19.8-4.62 3.73 1.22 8.09 2.65 12.46 1.36 3.13-.93 5.89-1.57 8.42-2.15 7.23-1.67 12.27-2.83 15.62-10.1 3.9-8.46 12.47-13.36 22.02-18.8 7.06-4.02 14.74-8.4 20.51-14.53 5.43-5.76 6.23-12.32 6.99-18.55 1.06-8.75 2.07-17.06 11.52-24.43 4.44-3.46 3.42-4.87 2.05-6.76-2.69-3.7-5.84-8.06-5.6-15.42.12-3.86-9.47-8.2-16.59-11.41-5.27-2.38-9.62-4.35-11.43-7.31-2.33-3.82-1.77-7.08 2.66-9.8 2.14-1.31 3.51-2.27 3.59-2.79.11-.77-1.01-2.39-3.83-5.29-8.47-8.72-5.46-14.19-1.13-18.4l1.47-1.33c-.94.3-2.56.95-4.22.1-4.62-2.37-10.77-4.83-16.5-6.44-1.8-.51-3.53-.93-5.08-1.21-12.9-2.37-12.56-8.23-12-17.92.22-3.79.49-8.56-1-13.98-1.71-6.22-5.75-7.84-9.15-9.2-5.42-2.16-10.04-4.01-11.09-11.76-.22-1.65-.19-3.28.08-4.86.78-4.63 3.52-8.84 7.79-12.04 3.84-2.85 8.97-4.94 15-5.76 4.28-.57 9.05-.53 14.14.33 3.68.62 7.29.85 10.51.78-7.78-3.27-9.9-6.92-11.76-10.12-.61-1.06-1.16-2.01-2.61-2.54-.87-.32-5.3 2.23-9.78 4.82-4.6 2.65-9.24 5.34-13.57 6.19-6.83 1.34-12.01-.74-13.78-9.76-.96-4.87-4.7-4.58-8.29-4.3-4.74.37-9.38.74-13.65-2.55-2.04-1.57-3.53-3.59-4.41-5.89-1.01-2.63-1.19-5.54-.52-8.51.6-2.66 1.91-5.39 3.9-7.99 3.31-4.31 8.73-8.42 16.33-11.34 6.15-2.36 9.56-6.93 12.68-11.12 4.9-6.58 9.31-12.48 20.34-13.04 6.19-.31 8.58-4.54 10.46-7.86 2.63-4.62 4.77-8.41 10.78-8.41 1.62 0 3.11.29 4.46.82 2.33.94 4.02 2.53 5.12 4.71.88 1.77 1.3 3.79 1.3 6.01 0 3.98-1.37 9.13-3.73 15.01-1.9 4.73-4.32 8.12-6.23 10.78l-.35.5c2.94.21 7.07-1.7 13.15-4.52 3.49-1.62 7.53-3.49 12.72-5.55 16.29-6.46 19.76-4.29 27.73.74 1.51.95 3.24 2.04 5.22 3.1 9.83 5.23 9.73 10.24 6.36 16.57-.73 1.37-1.47 2.47-2.27 3.68-1.45 2.16-3.13 4.68-3.94 7.44-.91 3.13-.88 4.97-.1 5.79 1.14 1.18 3.84 1.76 7.7 1.9 1.81.07 3.86-.14 5.81-.33 2.52-.25 4.92-.49 7.23-.3 8.43.7 14.02 4.99 12.6 22.3-.55 6.78-.59 11.22-.62 14.44-.09 10.32-.11 12.07-8.27 17.3-1.85 1.18-3.45 4.11-4.33 7.34-.53 1.93-.74 3.9-.54 5.59.12 1.07.39 1.91.8 2.28.18.19.55.3 1.14.32 2.77.09 3.49-.94 4.66-2.62 2.7-3.88 6.48-9.33 18.04-15.03l6.43-3.13c4.99-2.37 7.5-3.57 8.46-4.62.74-.81 1.23-2.79 2.21-6.77l1.29-5.13c2.14-8.16.65-10.55-1.48-13.93-2-3.22-4.37-7-6.11-13.69-1.37-5.29-4.6-7.51-7.44-9.47-5.51-3.8-10.24-7.05-9.22-17.86 1.8-19.13 1.86-19.13 15.3-19.12l.71-.02c1.55 0 1.64-.29 1.81-.83.64-2.08 1.46-4.72 3.61-8.02 2.27-3.49 4.71-5.54 7.08-7.53 2.66-2.24 5.21-4.38 6.39-9.94 1.21-5.7 3.24-9.17 5.02-12.22 1.66-2.84 2.98-5.1 1.74-9.63-.79-2.92-7.81-6.99-16.49-10.85-13.21-5.87-29.37-10.38-36.05-10.66-6.51-.27-12.25-3.24-16.39-6.94-2.5-2.24-4.48-4.79-5.74-7.22-1.59-3.08-2.16-6.25-1.46-8.95.51-1.96 1.59-3.6 3.27-4.79 2.05-1.46 4.27-1.9 6.79-2.39 4.06-.8 9.85-1.94 7.24-15.88-2.1-11.18-5.2-13.23-8.93-12.54-2.24.42-5.05 1.49-7.98 2.6-1.69.63-3.41 1.29-5.33 1.93-7.95 2.67-15.78 3.05-22.24 1.16-6.84-2.01-12.16-6.44-14.74-13.31-1.33-3.56-6.37-7.09-13.71-10.06-8.3-3.35-19.13-5.66-30.85-6.29-20.23-1.08-27.11-8.62-33.32-15.44-1.87-2.05-3.67-4.02-5.66-5.39-4.26-2.95-6.22-6.81-8.45-11.23-3.37-6.65-7.63-15.07-24.99-20.2-14.83-4.39-25.62-7.88-33.85-11.14-8.57-3.4-14.38-6.57-18.98-10.21-3.39-2.69-12.1.45-20.04 3.31-4.07 1.47-8 2.88-11.43 3.63-2.58.56-4.2 1.77-4.9 3.03l-.08.15.32.04c5.56.83 10.54 4.62 13.73 10.65 2.8 5.28 4.28 12.44 3.46 20.81l-.3 2.54c-.23 1.51-.6 3.03-1.07 4.52-2.3 7.18-7.18 12.53-13.94 15.7-6.31 2.97-14.22 3.95-23.03 2.63-3.12-.47-6.43-1.25-9.89-2.36l-5.16-1.67c-6.87-2.23-10.44-3.4-14.23-3.72-4.29-.37-9.6.19-20.63 1.35l-3.15.33c-11.92 1.25-18.08 3.2-23.38 4.87-7.13 2.25-12.9 4.07-27.06 3.61-20.8-.69-27.26-2.5-40.54-6.24l-8.66-2.39c-16.18-4.35-49.05-3.82-63.44-3.59l-5.56.09c-8.85 0-10-4.92-11.32-10.6-.46-1.99-1-4.29-3.48-4.93l-3.74-.93c-9.68-2.45-17.37-4.4-29.98-10.24-4.99-2.31-9.84-3.05-14.26-2.85-5.91.27-11.17 2.21-15.13 4.29l-1 .57c.69.46 1.61.91 2.72 1.33 3.91 1.48 6.66 4.58 8.14 8.37.84 2.15 1.28 4.52 1.28 6.89 0 2.33-.42 4.74-1.28 7.05-1.67 4.45-5 8.38-10.15 10.4-6.02 2.36-19.36 2.7-33.1 1.38-12.73-1.22-26.16-3.84-34.66-7.55-11.94-5.2-14.59-4.9-22.57-3.99-2.15.25-4.63.53-7.37.76-9.62.82-23.31 5.47-36.64 9.99-6.91 2.35-13.75 4.67-19.96 6.45-14.17 4.06-22.28-.26-36.03-7.58-6.53-3.48-14.53-7.74-25.68-12.15-15.72-6.21-19.54-4.96-23.31-3.73-4.76 1.56-9.49 3.1-22.12-.92-9.1-2.89-14.03-1.21-17.97.13-7.75 2.65-13.17 4.49-24.65-7.74-7.25-7.72-16.75-15.46-25.92-21.88-10.72-7.5-20.85-13.16-26.32-14.86-7.47-2.33-10.78-5.78-14.41-9.56-2.23-2.32-4.63-4.82-8.64-7-.92-.5-2.37.92-4.04 2.55-5.58 5.46-12.12 11.88-26.28 5.29-14.15-6.59-19.49-6.47-30.47-6.22-3.07.07-6.48.15-9.03.15-17.67 0-19.52-6.67-21.83-15.01-.57-2.06-1.2-4.3-2.39-6.2-1.36-2.17-5.24-2.47-11.13-1.54-7.83 1.25-18.29 4.78-30.76 9.41-13.27 4.93-22.07 7.48-30.76 8.39-8.71.92-16.94.17-29.13-1.47-4.98-.67-8.53-.73-10.97-.42 2 1.24 4.12 2.93 6.09 4.88 2.61 2.58 5.1 5.74 6.75 8.95 2.01 3.9 2.88 8.05 1.7 11.89a11.5 11.5 0 0 1-2.87 4.76c-.59.59 1.4 3.71 3.36 6.79 2.78 4.35 5.55 8.68 5.15 13.63-.05.61-.15 1.2-.28 1.77-1.09 4.62-5.06 8.98-11.79 11.65-5.6 2.22-13.4 3.42-23.25 2.63-4.5-.36-9.47-1.14-14.89-2.42-13.92-3.29-23.95.04-31.44 2.52-8.36 2.77-14.47 4.8-20.9-.53-5.48-4.54-6.95-3.85-10.82-2.03l-1.5.69c-9.98 4.62-12.19 1.81-18.16-5.78-1.02-1.3-2.23-2.84-3.79-4.6-1.98-2.25-3.28-2.03-5.41-1.65-3.78.67-8.79 1.55-17.03-.21-11.18-2.39-12.01-1.85-14.62-.15-.87.56-1.85 1.2-3.01 1.87-3.7 2.14-6.11 2.64-8.56 3.14-2.06.42-4.18.86-8.51 3.96-1.2.84-.97 1.31-.74 1.79 1.8 3.63 3.63 7.36-.29 12.94-5.21 7.41-12.43 5.37-19.16 3.46-1.12-.32-2.22-.63-3.12-.83-.57 2.14-.88 5.19-.84 8.52.04 3.71.54 7.7 1.61 11.08.98 3.1 2.29 5.47 3.85 5.76l3.82.67c11.47 1.97 12.97 2.22 20.66 15.61 3.22 5.6 7.38 3.69 13.71.77 2.04-.94 4.24-1.96 6.81-2.99 7.18-2.89 16.74-3.03 24.6-1.16 3.58.85 6.92 2.13 9.64 3.77 3.23 1.98 5.68 4.51 6.91 7.54.9 2.22 1.13 4.61.54 7.11-.63 2.68 2.42 4.93 4.91 6.76 3.19 2.35 5.98 4.41 6.74 8.21 1.25 6.25-.66 8.65-6.13 9.73-1.2.24-2.61.27-4.41.32-1.82.04-4.22.11-7.16.5-.72.1-1.13-1.86-1.04-1.16l.38 1.84c.43 1.89.92 4.04.92 6.55 0 6.68-3.73 8.54-9.25 8.54-1.55 0-3.24-.24-5.01-.5-2.61-.37-5.61-.8-5.94-.35-.57.76 9.43 6.86 19.23 15.27 9.61 8.26 19.95 17.14 25.22 24.73 3.7 5.32 8.5 9.69 12.62 13.45 9.91 9.04 17.09 15.61 8.1 25.87-.14.16-.01.36.2.54 1.03.91 2.6 1.9 4.13 2.86 5.44 3.43 10.66 6.74 9.18 13.56-.47 2.16.07 6.08 1.01 10.12 1.22 5.24 3.04 10.21 4.31 12.02l.11.18c1.29 1.81 2.63 3.7 3.31 6.2 1.65 5.96-.34 11.56-13.45 15.18-7.81 2.16-16.81 3.01-25.6 1.94-7.93-.96-15.76-3.48-22.56-7.97-7.46-4.93-11.39-5.23-14.87-5.49-2.28-.17-4.45-.34-7.2-1.23-3.7-1.19-7.18-4.39-9.59-8.19-1.45-2.32-2.61-4.93-3.23-7.47-.72-2.93-.77-5.91.08-8.55.78-2.44 2.27-4.51 4.56-5.97 1.83-1.16 1.06-8.81.35-15.83-.27-2.6-.53-5.14-.64-7.57-.1-2.28-.66-5.34-1.61-8.55-1.13-3.81-2.78-7.69-4.82-10.48-1.37-1.88-2.77-3.15-3.95-3.11l-.52.1c-9.91 2.93-13.61 2.55-22.82 1.6l-6.07-.6c-8.98-.79-11.83-5.45-14.96-10.56-2.11-3.44-4.46-7.27-12.32-8.06-12.12-1.22-15.04-4.28-17.66-7.01-.98-1.02-1.86-1.94-7.76-2.08-4-.09-8.07-.51-12.02-1.05 1.1 1.52 1.56 3.47 1.56 5.68 0 3.53-1.8 7.06-3.32 10.04-.53 1.05-1.02 2.01-1.16 2.42-1.29 3.82-13.14 9.91-28.47 13.57-10.52 2.52-23.09 4.39-35.08 4.21-20.08-.3-29.26-7.26-36.01-12.38-2.33-1.77-4.27-3.24-5.84-3.61-5.02-1.17-20.79-3.52-34.79-2.2-7.68.73-14.64 2.52-18.23 6.16-12.91 13.1-22.15 13-37.47 12.84l-5.02-.01c-10.52 0-12.61 2.73-15.48 6.46-1.13 1.47-2.35 3.06-3.96 4.78-6.11 6.52-10.31 6.97-16.83 7.67-2.17.23-4.68.5-7.55 1.14-9.7 2.15-12.33 2.43-20.45 3.28l-3.83.4c-1.72.18-2.63.59-2.91 1.04l.02.07c.13.23.49.43 1.07.49l.94.09c9.39.9 9.83.95 19.03 12.31 8.18 10.09 9.67 12.64 16.2 23.86l1.32 2.28c4.56 7.93 5.16 8.95 25.85 12.62 9.6 1.7 15.72.96 21.14.3 8.75-1.06 15.97-1.94 30.33 4.95 12.93 6.2 16.88 3.74 22.47.27 3.21-2 6.82-4.24 11.98-6.06 8.58-3.04 16.71-2.45 22.45-.28 2.72 1.03 5.02 2.45 6.7 4.07 2.19 2.1 3.48 4.64 3.62 7.33.12 2.46-.65 4.8-2.48 6.87-.51.58-.15 2.46.31 4.86.91 4.75 2.03 10.58-.45 18.42-2.38 7.53-6.91 12.08-11.12 16.32-3.15 3.16-6.06 6.09-6.49 9.59-.44 3.55-.2 5.44.01 7.07.52 3.93.91 6.94-2.63 15.78-2.96 7.4-2.39 11.23-1.23 18.95.49 3.31 1.09 7.28 1.62 12.83 1.26 13.2 1.42 17.17 1.72 24.39l.54 11.92c.32 6.32 6.81 12.62 14.05 19.66 8.87 8.61 18.7 18.18 22.75 32.13 3.02 10.41 9.98 14.04 16.66 17.52 8.26 4.31 16.24 8.47 19.93 20.87 2.34 7.91 2.41 14.06 2.46 19.66.08 8.66.15 15.77 13.26 27.64 12.9 11.68 19.83 22.71 25.03 31 3.69 5.87 6.34 10.09 8.86 11.05 5.94 2.26 11.46 6.4 15.14 11.58 3.53 4.97 5.43 10.91 4.58 17.18-.35 2.6-.75 4.7-1.14 6.68-1.09 5.67-1.99 10.38.69 16.33 1.72 3.82 3.2 7.6 4.33 11.34 1.15 3.81 1.97 7.7 2.35 11.69.09.95.62 1.84 1.43 2.53zm1310.55-335.16c0-.12-.04-.19-.11-.22l.03.13zm-.08-.09.07.11zm.01.04.06.07zm-333.59 362.61c.45-.02.53-.21.55-.52-.95.39-1.55.57-.55.52" style="fill:#73bc4e;fill-rule:nonzero"/><path d="M837.95 1688.51c-24.12-84.24-776.78-813.78-653.83-1332.88-218.47 123.85 36.93 636.33 133.07 788.91 139.2 220.9 184.9 272.9 346.95 451.79 65.46 72.26 71.4 107.12 173.82 92.18zM469.26 900.2l115.71-1.16c39.54-62.79 79.68-128.34 110.59-172.59C842.62 515.9 977.91 344.88 1179.2 187.04c172.54-135.3 179.31-106.44 308.67-161.3 2.91-1.23 7.99-4.11 10.32-5.18l20.43-11.91c-362.78-81.2-739.81 429.13-935.59 701.71-29.5 46.94-83.54 119.82-113.77 189.83z" class="fil1"/><path d="M80.56 1749.73c131.29 318.81 906.06 97.21 1174.2-10.11 99.7-32.3 162.64-101.44 171.8-155.2-101.46 27.58-101.2 40.05-207.62 77.65-113.1 39.96-234.1 78.58-351.42 107.1-276.01 67.11-527.88 97.53-786.97-19.45zM530.63 582.84l51.67 72.17c16.59-28.61 237.83-447.31 650.15-631.2C1063.31.37 906.12 116.34 805.69 227.48c-62.52 69.19-241.29 268.34-275.05 355.35z" class="fil1"/><path d="M326.73 1926.22c131.38 184.91 546.86 77.47 736.76 8.84 111.06-40.14 169.35-24.98 152.63-139.64-94.55 9.96-302.52 94.07-421.58 121.39-192.43 44.16-274.88 50.99-467.81 9.41M90.42 632.75c-77.5 174.62-26.7 323.97 62.17 484.16 56.59 101.99 187.3 296.58 269.8 369.99l67.04-37.19C362.05 1215.49 93.41 1008.12 90.42 632.76z" class="fil1"/><path d="M527.72 2047.44c110.66 125.64 284.4 80.07 422.2 27.44l-3.84-65.61c-187.35 18.4-192.84 66.13-418.35 38.17zM678.95 317.4c37.63-37.62 105.78-110.03 142.53-147.98C894 94.54 922.96 94.19 999.89 38.77c-152.07-2.25-202.71 25.56-318.45 168.96-45.96 56.95-49.06 51.01-2.5 109.68zM26.83 880.79c-38.99 113.33-36.91 149.64 15.66 257.57 88.42 181.5 104.13 141.24 157.54 125.78-25.94-64.68-70.47-113.52-102.45-180.66-30.12-63.22-45.01-152.89-70.74-202.68zm1550.11-179.02h234.64c-227.31-108.78-486.3-180.59-647.7-210.63-104.83-19.52-137.86-48.33-205.73 30.69 45.07 29.4 305.34 76.68 384.76 99.36 70.97 20.27 151.57 47.92 234.03 80.58m322.07 0h146.15c-151.29-131.31-393.6-204.4-561.86-252.44-77.45-22.11-74.99-13.39-108.34 56.28l106.67 36.75c38.44 11.55 74.83 22.96 112.7 35.74 100.61 33.93 206.73 73.37 304.67 123.67zm-176.06-209.58c63.22 24.37 130.28 48.8 187.84 79.48 75.37 40.17 113.19 87.8 169.41 118.76-24.44-149.61-185.46-235.45-327.38-256.35l-29.87 58.12zm-97.76 1096.19h95.93c-2.27 28.1-4.96 54.93-8.08 80.05-25.35 203.93-111.88 586.05-356.26 609.81 174.27-106.2 244.99-389.76 268.41-689.86" class="fil1"/><path d="M1757.37 1588.38h91.83c-19.09 211.8-80.97 443.6-230.74 504.63 82.63-176.5 99.71-178.33 127.87-389.85 5.13-38.54 8.66-76.8 11.04-114.78m122.86 0h72.4c.92 13.81-.44 32.5-2.47 58.93-9.41 123.02-32.15 234.04-154.97 293.51 91.89-241.31 54.83-121.04 83.45-339.19zM1452.74 74.31c31.89 39.23 88.04 68.88 125.41 105.66 75.2 74.02 30.33 74.94 148.25 75.77-18.45-103.26-153.33-229.21-273.66-181.43M204.48 458.87c51.81-37.1 71.13-62.22 134.11-92.04 96.45-45.67 92.93-19.65 118.46-126.15-132.3 16.02-254.81 65.05-252.56 218.18zM56.04 1446.22c-37.89 117.85-8.76 275.84 128.14 308.18-14.24-45.5-33.55-73.95-43.13-123.45-32.18-166.22 20.71-113.65-85-184.74zm1030.13 763.21c103.34 71.18 239.23 80.55 321.56-29.57-78.33.58-111.5 8.41-191.41-11.17-63.67-15.6-97.56-20.19-130.15 40.74m-760.62-423.58c-49.83-213.28-46.19-175.26-148.69-249.96-5.29 53.31 9.76 114.92 26.35 165.77 29.07 89.09 34.5 76.27 122.34 84.19M211.8 508.49l5.68 97.59c36.74-17.41 79.12-55.19 117.17-80.08 61.84-40.46 59.92-70.46 76.21-143.45-98.84 31.44-124.13 63.55-199.05 125.94zm1106.43-372.9 137.89 117.26 119.83 1.36c-30.83-67.15-120.69-137.99-197.35-158.11l-60.36 39.49zm166 1912.95c-125.22 4.29-207.44-32.51-282.78 82.28l242.58 3.23zm48.29-140.93c-77.23 6.14-47.63-4.77-103.52 37.96-30.46 23.29-41.09 28.22-63.94 58.89l138.55-5.23 28.91-91.63zM1190.43 223.15c75.34 46.64 94.66 32.88 180.17 31.64-24.32-46.99-57.12-62.51-106.48-82.76l-73.68 51.12zm-719.29 1563.4c-13.4-64.91-71.65-101.81-133.39-123.59l45.28 126.96 88.1-3.37zM237.15 652.7l21.74 88.53c67.9-36.14 73.32-91.02 89.59-163.66l-111.32 75.14z" class="fil1"/><path d="M1171.69 1153.69h-81.38v-65.29H850.49V751.12h87.14v256.86h107.07V751.12h87.14v256.86h39.85zm342.32-65.29h-89.06l-18-52.81h-120.99l-18 52.81h-89.06l130.11-337.76h75.62l129.39 337.76zm-171.4-219.41-32.17 94.58h72.26l-32.17-94.58-3.84-15.36h-.48zm348.08 225.41c-32.49 0-62.09-7.84-88.9-23.53-26.8-15.68-47.93-36.89-63.37-63.61-15.44-26.73-23.2-56.1-23.2-88.1 0-32.01 7.76-61.38 23.2-88.1 15.44-26.73 36.49-47.85 63.22-63.3 26.73-15.44 56.41-23.13 89.06-23.13 32.49 0 62.09 7.76 88.82 23.29s47.85 36.57 63.3 63.21c15.44 26.65 23.13 56.01 23.13 88.02 0 31.85-7.68 61.13-23.13 87.94-15.44 26.8-36.57 48.09-63.37 63.77-26.81 15.68-56.41 23.53-88.74 23.53zm0-82.82c15.52 0 30.01-4.08 43.45-12.16s24.17-19.2 32.17-33.37c8-14.16 12-29.69 12-46.65s-4-32.49-12.08-46.57-18.88-25.21-32.33-33.29c-13.44-8.08-27.84-12.08-43.21-12.08-15.53 0-30.01 4-43.45 12.08s-24.17 19.2-32.24 33.29c-8.08 14.08-12.16 29.61-12.16 46.57s4.08 32.49 12.16 46.57 18.88 25.21 32.41 33.37c13.52 8.16 27.93 12.24 43.29 12.24zm313.03 76.82h-87.14V751.12h294.31v337.28h-87.38V826.98h-119.79zm331.04 6.48c-16 0-32.65-2.4-49.93-7.2l.48-70.82c11.52 2.56 22.16 3.84 31.93 3.84q14.4 0 22.56-5.52c5.44-3.68 9.68-9.04 12.72-16.09l5.28-11.76-110.9-236.22h93.14l57.14 136.59h.72l54.25-136.59h93.38l-130.59 278.47c-10.24 22.25-21.45 38.65-33.61 49.29s-27.69 16-46.57 16zm313.75-6.48h-87.38l43.45-337.28h96.98l60.25 217.73 60.01-217.73h97.22l43.69 337.52h-87.62l-21.12-198.77-54.01 198.53h-75.37l-54.01-198.53-22.08 198.53zM951.57 1375.44h-25.61v-20.55h-75.47v-106.14h27.42v80.83h33.69v-80.83h27.42v80.83h12.54v45.85zm97.96-20.55h-78.26v-106.14h77.13v24.55h-49.93v16.55h39.05v22.89h-39.05v17.6h51.07v24.55zm50.74 0h-27.19v-106.14h27.19v37.62h38.75v-37.62h27.19v106.14h-27.19v-42.53h-38.75zm144.34 0h-27.19v-80.83h-28.48v-25.31h84.23v25.31h-28.56zm51.27 0v-106.14h43.89c7.66 0 14.38 1.54 20.15 4.61s10.22 7.3 13.37 12.72c3.15 5.41 4.71 11.53 4.71 18.33 0 7.35-1.51 13.83-4.54 19.41-3.02 5.59-7.38 9.92-13.09 13.02-5.72 3.09-12.49 4.66-20.29 4.66h-17v33.39h-27.19zm42-57.94q3.63 0 6.57-1.59c1.96-1.06 3.52-2.54 4.66-4.43s1.69-3.98 1.69-6.3c0-2.22-.55-4.18-1.69-5.89-1.13-1.71-2.67-3.05-4.61-4-1.94-.96-4.13-1.44-6.55-1.44h-14.88v23.65zm143.96 57.94h-28.02l-5.67-16.62h-38.07l-5.66 16.62h-28.03l40.94-106.29h23.79zm-53.94-69.04-10.12 29.76h22.74l-10.12-29.76-1.21-4.84h-.15l-1.13 4.84zm75.07 70.4c-1.51 0-2.89-.08-4.15-.23q-1.89-.225-4.53-.75l-2.87-.45v-24.63c3.43.46 6.15.68 8.16.68 4.63 0 8.01-3.12 10.12-9.37 2.12-6.24 3.43-14.73 3.93-25.46.51-10.72.75-26.49.75-47.29h82.49v106.14h-27.5v-80.83h-29.46c0 16.06-.68 29.74-2.06 41.04-1.38 11.31-4.78 21-10.2 29.06-5.41 8.06-13.65 12.09-24.68 12.09m122.66-1.36v-106.14h27.42v34.37h16.24q11.64 0 20.22 4.68c5.72 3.12 10.07 7.4 13.09 12.84q4.53 8.16 4.53 18.51c0 6.8-1.56 12.92-4.68 18.35-3.12 5.44-7.58 9.7-13.37 12.77s-12.52 4.61-20.17 4.61h-43.28zm40.72-24.17c3.68 0 6.72-1.08 9.14-3.23 2.42-2.14 3.63-4.94 3.63-8.41 0-2.17-.55-4.16-1.69-5.94-1.13-1.79-2.69-3.2-4.66-4.23-1.96-1.03-4.13-1.54-6.49-1.54h-13.22v23.35h13.3zm90.33 24.17h-27.19v-106.14h27.19v37.62h38.75v-37.62h27.19v106.14h-27.19v-42.53h-38.75zm144.72 1.89c-10.22 0-19.54-2.47-27.98-7.4-8.44-4.94-15.08-11.61-19.94-20.02s-7.3-17.65-7.3-27.72 2.44-19.32 7.3-27.72c4.86-8.41 11.48-15.06 19.89-19.92s17.75-7.28 28.02-7.28c10.22 0 19.54 2.44 27.95 7.33s15.06 11.51 19.92 19.89 7.28 17.63 7.28 27.7c0 10.02-2.42 19.24-7.28 27.67s-11.51 15.13-19.94 20.07c-8.44 4.94-17.75 7.4-27.93 7.4zm0-26.06c4.89 0 9.44-1.29 13.67-3.83s7.6-6.04 10.12-10.5 3.78-9.34 3.78-14.68-1.26-10.22-3.8-14.66c-2.54-4.43-5.94-7.93-10.17-10.47s-8.77-3.8-13.6-3.8c-4.89 0-9.44 1.26-13.67 3.8s-7.6 6.04-10.15 10.47c-2.54 4.43-3.83 9.32-3.83 14.66s1.28 10.22 3.83 14.66q3.81 6.645 10.2 10.5c4.26 2.57 8.79 3.85 13.62 3.85m131.58-7.78h-58.09v-21h58.09zm119.18 31.95h-28.02l-5.67-16.62h-38.07l-5.66 16.62h-28.03l40.94-106.29h23.79zm-53.94-69.04-10.12 29.76h22.74l-10.12-29.76-1.21-4.84h-.15l-1.13 4.84zm103.25 71.16c-9.82 0-18.2-2.22-25.18-6.65-6.97-4.43-12.37-10.95-16.14-19.56l20.78-9.44c1.96 3.78 4.53 6.67 7.68 8.69 3.15 2.01 6.85 3.02 11.13 3.02 4.73 0 8.54-1.13 11.41-3.37s4.31-5.36 4.31-9.39c0-3.98-1.61-7.13-4.86-9.42s-7.81-3.43-13.65-3.43h-8.31v-18.89h10.12c4.63 0 8.23-.91 10.78-2.69 2.54-1.79 3.8-4.13 3.8-7.05 0-2.62-1.18-4.68-3.58-6.17-2.39-1.49-5.41-2.22-9.04-2.22-3.88 0-7.15.91-9.84 2.74-2.69 1.84-4.74 4.41-6.09 7.68l-19.56-8.23c3.17-8.46 8.06-14.93 14.63-19.41s14.15-6.72 22.76-6.72c6.85 0 12.94 1.21 18.26 3.65 5.31 2.44 9.42 5.81 12.34 10.12q4.38 6.465 4.38 14.4c0 5.03-1.46 9.57-4.41 13.6s-7.12 7-12.52 8.92c6.35 1.66 11.43 4.61 15.26 8.84s5.74 9.8 5.74 16.69c0 5.94-1.64 11.53-4.91 16.8-3.28 5.26-7.96 9.49-14.05 12.69s-13.17 4.81-21.23 4.81zm156.35-108.25v106.14h-26.44v-63.31l-41.55 63.31h-24.63v-106.14h26.44v59.98l38.98-59.98h27.19zm124.4 106.14h-28.02l-5.67-16.62h-38.07l-5.66 16.62h-28.03l40.94-106.29h23.79zm-53.94-69.04-10.12 29.76h22.74l-10.12-29.76-1.21-4.84h-.15l-1.13 4.84zm110.87 69.04h-27.19v-80.83h-28.48v-25.31h84.23v25.31h-28.56zm96.37 1.89c-10.22 0-19.54-2.47-27.98-7.4-8.44-4.94-15.08-11.61-19.94-20.02s-7.3-17.65-7.3-27.72 2.44-19.32 7.3-27.72c4.86-8.41 11.48-15.06 19.89-19.92s17.75-7.28 28.02-7.28c6.8 0 13.27 1.11 19.39 3.35s11.58 5.41 16.42 9.49l-15.49 20.7c-2.77-2.17-5.94-3.95-9.52-5.36s-7.18-2.12-10.8-2.12c-4.89 0-9.44 1.26-13.67 3.8s-7.6 6.04-10.15 10.47c-2.54 4.43-3.83 9.32-3.83 14.66s1.28 10.22 3.83 14.66q3.81 6.645 10.2 10.5c4.26 2.57 8.79 3.85 13.62 3.85 3.93 0 7.43-.58 10.47-1.71 3.05-1.13 6.4-3.12 10.07-5.99l15.26 20.85c-4.84 4.13-10.3 7.3-16.42 9.54s-12.59 3.38-19.39 3.38zm84.59-1.89h-27.42v-106.14h27.42v39.43h11.1l23.72-39.43h30.52l-33.92 51.45 34.3 54.69h-30.59l-24.02-42.76-11.1.08v42.68zm128.02 1.89c-10.22 0-19.54-2.47-27.98-7.4-8.44-4.94-15.08-11.61-19.94-20.02s-7.3-17.65-7.3-27.72 2.44-19.32 7.3-27.72c4.86-8.41 11.48-15.06 19.89-19.92s17.75-7.28 28.02-7.28c10.22 0 19.54 2.44 27.95 7.33s15.06 11.51 19.92 19.89 7.28 17.63 7.28 27.7c0 10.02-2.42 19.24-7.28 27.67s-11.51 15.13-19.94 20.07c-8.44 4.94-17.75 7.4-27.93 7.4zm0-26.06c4.89 0 9.44-1.29 13.67-3.83s7.6-6.04 10.12-10.5 3.78-9.34 3.78-14.68-1.26-10.22-3.8-14.66c-2.54-4.43-5.94-7.93-10.17-10.47s-8.77-3.8-13.6-3.8c-4.89 0-9.44 1.26-13.67 3.8s-7.6 6.04-10.15 10.47c-2.54 4.43-3.83 9.32-3.83 14.66s1.28 10.22 3.83 14.66q3.81 6.645 10.2 10.5c4.26 2.57 8.79 3.85 13.62 3.85m156.96 24.17h-78.26v-106.14h77.13v24.55h-49.93v16.55h39.05v22.89h-39.05v17.6h51.07v24.55zm109.14 1.89c-10.22 0-19.54-2.47-27.98-7.4-8.44-4.94-15.08-11.61-19.94-20.02s-7.3-17.65-7.3-27.72 2.44-19.32 7.3-27.72c4.86-8.41 11.48-15.06 19.89-19.92s17.75-7.28 28.02-7.28c10.22 0 19.54 2.44 27.95 7.33s15.06 11.51 19.92 19.89 7.28 17.63 7.28 27.7c0 10.02-2.42 19.24-7.28 27.67s-11.51 15.13-19.94 20.07c-8.44 4.94-17.75 7.4-27.93 7.4zm0-26.06c4.89 0 9.44-1.29 13.67-3.83s7.6-6.04 10.12-10.5 3.78-9.34 3.78-14.68-1.26-10.22-3.8-14.66c-2.54-4.43-5.94-7.93-10.17-10.47s-8.77-3.8-13.6-3.8c-4.89 0-9.44 1.26-13.67 3.8s-7.6 6.04-10.15 10.47c-2.54 4.43-3.83 9.32-3.83 14.66s1.28 10.22 3.83 14.66q3.81 6.645 10.2 10.5c4.26 2.57 8.79 3.85 13.62 3.85m78.7 24.17v-106.14h68.74v23.87h-43.59v16.55h17.98c7.4 0 13.85 1.23 19.34 3.7s9.75 6.04 12.74 10.75c3 4.71 4.48 10.38 4.48 16.97 0 6.9-1.59 12.94-4.76 18.13-3.17 5.18-7.55 9.17-13.15 11.96-5.59 2.79-11.89 4.2-18.89 4.2h-42.91zm42.53-23.19c7.91 0 11.86-3.7 11.86-11.1 0-2.72-.63-4.94-1.91-6.62-1.28-1.69-2.85-2.9-4.66-3.63s-3.6-1.08-5.36-1.08h-17.3v22.44h17.38zm119.34-48.57c7.75 0 14.5 1.56 20.22 4.68 5.71 3.12 10.07 7.4 13.09 12.84q4.53 8.16 4.53 18.51c0 6.8-1.56 12.92-4.68 18.35-3.12 5.44-7.58 9.7-13.37 12.77s-12.51 4.61-20.17 4.61h-43.29V1274h-23.34v-25.23h50.84v34.37zm-2.95 47.59c3.68 0 6.72-1.08 9.14-3.23 2.42-2.14 3.63-4.94 3.63-8.41 0-2.17-.55-4.16-1.69-5.94-1.13-1.79-2.69-3.2-4.66-4.23s-4.13-1.54-6.5-1.54h-13.14v23.35zm142.6 24.17h-78.26v-106.14h77.13v24.55h-49.93v16.55h39.05v22.89h-39.05v17.6h51.07v24.55zm14.48 20.4v-45.63h8.99c4.94-7.1 8.51-15.71 10.7-25.84 2.19-10.12 3.27-21.81 3.27-35.05v-20.02h73.5v80.9h14.66v45.63h-23.79v-20.4h-63.53v20.4h-23.8zm69.27-45.63V1274h-21.38v8.84c0 8.36-1.01 16.69-3.02 25.01-2.01 8.31-4.53 15.58-7.55 21.83h31.96zm154.16-80.9v106.14h-26.44v-63.31l-41.55 63.31h-24.63v-106.14h26.44v59.98l38.98-59.98h27.19zm55.96 106.14h-27.19v-106.14h27.19v37.62h38.75v-37.62h27.19v106.14h-27.19v-42.53h-38.75zm172.97 0h-78.26v-106.14h77.13v24.55h-49.93v16.55h39.05v22.89h-39.05v17.6h51.07v24.55zm50.74 0h-27.19v-106.14h27.19v37.62h38.75v-37.62h27.19v106.14h-27.19v-42.53h-38.75zm187.32-106.14v106.14h-26.44v-63.31l-41.55 63.31h-24.63v-106.14h26.44v59.98l38.98-59.98h27.19zm107.03 106.14h-78.26v-106.14h77.13v24.55h-49.93v16.55h39.05v22.89h-39.05v17.6h51.07v24.55zM877.9 1536.21h-27.42v-106.14h92.61v106.14h-27.5v-82.27h-37.7v82.27zm93.96 0v-106.14h43.89c7.66 0 14.38 1.54 20.15 4.61s10.22 7.3 13.37 12.72c3.15 5.41 4.71 11.53 4.71 18.33 0 7.35-1.51 13.83-4.54 19.41-3.02 5.59-7.38 9.92-13.09 13.02-5.72 3.09-12.49 4.66-20.29 4.66h-17v33.39h-27.19zm42-57.94q3.63 0 6.57-1.59c1.96-1.06 3.52-2.54 4.66-4.43s1.69-3.98 1.69-6.3c0-2.22-.55-4.18-1.69-5.89-1.13-1.71-2.67-3.05-4.61-4-1.94-.96-4.13-1.44-6.55-1.44h-14.88v23.65zm111.1 59.83c-10.22 0-19.54-2.47-27.98-7.4-8.44-4.94-15.08-11.61-19.94-20.02s-7.3-17.65-7.3-27.72 2.44-19.32 7.3-27.72c4.86-8.41 11.48-15.06 19.89-19.92s17.75-7.28 28.02-7.28c10.22 0 19.54 2.44 27.95 7.33s15.06 11.51 19.92 19.89 7.28 17.63 7.28 27.7c0 10.02-2.42 19.24-7.28 27.67s-11.51 15.13-19.94 20.07c-8.44 4.94-17.75 7.4-27.93 7.4zm0-26.06c4.89 0 9.44-1.29 13.67-3.83s7.6-6.04 10.12-10.5 3.78-9.34 3.78-14.68-1.26-10.22-3.8-14.66c-2.54-4.43-5.94-7.93-10.17-10.47s-8.77-3.8-13.6-3.8c-4.89 0-9.44 1.26-13.67 3.8s-7.6 6.04-10.15 10.47c-2.54 4.43-3.83 9.32-3.83 14.66s1.28 10.22 3.83 14.66q3.81 6.645 10.2 10.5c4.26 2.57 8.79 3.85 13.62 3.85m171.31-81.96v106.14h-26.44v-63.31l-41.55 63.31h-24.63v-106.14h26.44v59.98l38.98-59.98h27.19zm64.87 108.25c-9.82 0-18.2-2.22-25.18-6.65-6.97-4.43-12.37-10.95-16.14-19.56l20.78-9.44c1.96 3.78 4.53 6.67 7.68 8.69 3.15 2.01 6.85 3.02 11.13 3.02 4.73 0 8.54-1.13 11.41-3.37s4.31-5.36 4.31-9.39c0-3.98-1.61-7.13-4.86-9.42s-7.81-3.43-13.65-3.43h-8.31v-18.89h10.12c4.63 0 8.23-.91 10.78-2.69 2.54-1.79 3.8-4.13 3.8-7.05 0-2.62-1.18-4.68-3.58-6.17-2.39-1.49-5.41-2.22-9.04-2.22-3.88 0-7.15.91-9.84 2.74-2.69 1.84-4.74 4.41-6.09 7.68l-19.56-8.23c3.17-8.46 8.06-14.93 14.63-19.41s14.15-6.72 22.76-6.72c6.85 0 12.94 1.21 18.26 3.65 5.31 2.44 9.42 5.81 12.34 10.12q4.38 6.465 4.38 14.4c0 5.03-1.46 9.57-4.41 13.6s-7.12 7-12.52 8.92c6.35 1.66 11.43 4.61 15.26 8.84s5.74 9.8 5.74 16.69c0 5.94-1.64 11.53-4.91 16.8-3.28 5.26-7.96 9.49-14.05 12.69s-13.17 4.81-21.23 4.81zm63.74-2.12v-106.14h43.81c7.15 0 13.42 1.18 18.81 3.55s9.55 5.74 12.47 10.12 4.38 9.52 4.38 15.41q0 4.305-1.59 8.46c-1.06 2.77-2.49 5.19-4.31 7.25-1.81 2.06-3.8 3.55-5.97 4.46 3.22 1.11 6.12 2.95 8.66 5.54s4.51 5.64 5.92 9.14 2.11 7.18 2.11 11.01c0 6.45-1.54 12.01-4.63 16.72-3.1 4.71-7.38 8.31-12.84 10.78s-11.69 3.7-18.63 3.7h-48.2zm41.55-65.04c3.22 0 5.81-.91 7.78-2.69 1.96-1.79 2.95-3.98 2.95-6.6 0-2.52-.91-4.58-2.75-6.17s-4.28-2.37-7.3-2.37h-15.03v17.83zm4.38 42.38c3.32 0 5.99-1.06 8.01-3.15 2.01-2.09 3.02-4.83 3.02-8.26 0-1.91-.48-3.7-1.46-5.36s-2.39-3-4.23-4.01c-1.84-1-3.95-1.51-6.32-1.51h-17.75v22.29zm111.33 24.55c-10.22 0-19.54-2.47-27.98-7.4-8.44-4.94-15.08-11.61-19.94-20.02s-7.3-17.65-7.3-27.72 2.44-19.32 7.3-27.72c4.86-8.41 11.48-15.06 19.89-19.92s17.75-7.28 28.02-7.28c10.22 0 19.54 2.44 27.95 7.33s15.06 11.51 19.92 19.89 7.28 17.63 7.28 27.7c0 10.02-2.42 19.24-7.28 27.67s-11.51 15.13-19.94 20.07c-8.44 4.94-17.75 7.4-27.93 7.4zm0-26.06c4.89 0 9.44-1.29 13.67-3.83s7.6-6.04 10.12-10.5 3.78-9.34 3.78-14.68-1.26-10.22-3.8-14.66c-2.54-4.43-5.94-7.93-10.17-10.47s-8.77-3.8-13.6-3.8c-4.89 0-9.44 1.26-13.67 3.8s-7.6 6.04-10.15 10.47c-2.54 4.43-3.83 9.32-3.83 14.66s1.28 10.22 3.83 14.66q3.81 6.645 10.2 10.5c4.26 2.57 8.79 3.85 13.62 3.85m69.63 44.57v-45.63h8.99c4.94-7.1 8.51-15.71 10.7-25.84 2.19-10.12 3.27-21.81 3.27-35.05v-20.02h73.5v80.9h14.66v45.63h-23.79v-20.4h-63.53v20.4h-23.8zm69.27-45.63v-55.67h-21.38v8.84c0 8.36-1.01 16.69-3.02 25.01-2.01 8.31-4.53 15.58-7.55 21.83h31.96zm154.16-80.9v106.14h-26.44v-63.31l-41.55 63.31h-24.63v-106.14h26.44v59.98l38.98-59.98h27.19zm78.39 106.14h-27.19v-80.83h-28.48v-25.31h84.23v25.31h-28.56zm129.54 0h-78.26v-106.14H2082v24.55h-49.93v16.55h39.05v22.89h-39.05v17.6h51.07v24.55zm25.59 1.36c-1.51 0-2.89-.08-4.15-.23q-1.89-.225-4.53-.75l-2.87-.45v-24.63c3.43.46 6.15.68 8.16.68 4.63 0 8.01-3.12 10.12-9.37 2.12-6.24 3.43-14.73 3.93-25.46.51-10.72.75-26.49.75-47.29h82.49v106.14h-27.5v-80.83h-29.46c0 16.06-.68 29.74-2.06 41.04-1.38 11.31-4.78 21-10.2 29.06-5.41 8.06-13.65 12.09-24.68 12.09m200.92-1.36h-78.26v-106.14h77.13v24.55h-49.93v16.55h39.05v22.89h-39.05v17.6h51.07v24.55zm116.16-106.14v106.14h-26.44v-63.31l-41.55 63.31h-24.63v-106.14h26.44v59.98l38.98-59.98h27.19zm-43.51-8.38c-7.66 0-13.37-2.01-17.15-6.02-3.78-4-5.69-9.37-5.74-16.12h16.77c0 2.87.48 4.91 1.41 6.12s2.49 1.81 4.71 1.81c2.17 0 3.72-.6 4.68-1.81s1.43-3.25 1.43-6.12h16.7c0 6.85-1.89 12.24-5.67 16.19s-9.49 5.94-17.15 5.94zm125.68 116.56c-5.04 0-10.27-.76-15.72-2.27l.15-22.29c3.63.81 6.98 1.21 10.05 1.21 3.02 0 5.39-.58 7.1-1.74s3.05-2.85 4-5.06l1.66-3.7-34.9-74.33h29.31l17.98 42.98h.23l17.07-42.98h29.39l-41.1 87.63c-3.22 7-6.75 12.16-10.58 15.51s-8.71 5.04-14.65 5.04zm112.69-2.04h-27.42v-106.14h92.61v106.14h-27.5v-82.27h-37.7v82.27zm189.59 0h-28.02l-5.67-16.62h-38.07l-5.66 16.62h-28.03l40.94-106.29h23.79zm-53.94-69.04-10.12 29.76h22.74l-10.12-29.76-1.21-4.84h-.15l-1.13 4.84zm100.3 69.04h-27.42v-106.14h27.42v39.43h11.1l23.72-39.43h30.52l-33.92 51.45 34.3 54.69h-30.59l-24.02-42.76-11.1.08v42.68zm128.02 1.89c-10.22 0-19.54-2.47-27.98-7.4-8.44-4.94-15.08-11.61-19.94-20.02s-7.3-17.65-7.3-27.72 2.44-19.32 7.3-27.72c4.86-8.41 11.48-15.06 19.89-19.92s17.75-7.28 28.02-7.28c10.22 0 19.54 2.44 27.95 7.33s15.06 11.51 19.92 19.89 7.28 17.63 7.28 27.7c0 10.02-2.42 19.24-7.28 27.67s-11.51 15.13-19.94 20.07c-8.44 4.94-17.75 7.4-27.93 7.4zm0-26.06c4.89 0 9.44-1.29 13.67-3.83s7.6-6.04 10.12-10.5 3.78-9.34 3.78-14.68-1.26-10.22-3.8-14.66c-2.54-4.43-5.94-7.93-10.17-10.47s-8.77-3.8-13.6-3.8c-4.89 0-9.44 1.26-13.67 3.8s-7.6 6.04-10.15 10.47c-2.54 4.43-3.83 9.32-3.83 14.66s1.28 10.22 3.83 14.66q3.81 6.645 10.2 10.5c4.26 2.57 8.79 3.85 13.62 3.85m78.7 24.17v-106.14h43.81c7.15 0 13.42 1.18 18.81 3.55s9.55 5.74 12.47 10.12 4.38 9.52 4.38 15.41q0 4.305-1.59 8.46c-1.06 2.77-2.49 5.19-4.31 7.25-1.81 2.06-3.8 3.55-5.97 4.46 3.22 1.11 6.12 2.95 8.66 5.54s4.51 5.64 5.92 9.14 2.11 7.18 2.11 11.01c0 6.45-1.54 12.01-4.63 16.72-3.1 4.71-7.38 8.31-12.84 10.78s-11.69 3.7-18.63 3.7h-48.2zm41.55-65.04c3.22 0 5.81-.91 7.78-2.69 1.96-1.79 2.95-3.98 2.95-6.6 0-2.52-.91-4.58-2.75-6.17s-4.28-2.37-7.3-2.37h-15.03v17.83zm4.38 42.38c3.32 0 5.99-1.06 8.01-3.15 2.01-2.09 3.02-4.83 3.02-8.26 0-1.91-.48-3.7-1.46-5.36s-2.39-3-4.23-4.01c-1.84-1-3.95-1.51-6.32-1.51h-17.75v22.29zm111.33 24.55c-10.22 0-19.54-2.47-27.98-7.4-8.44-4.94-15.08-11.61-19.94-20.02s-7.3-17.65-7.3-27.72 2.44-19.32 7.3-27.72c4.86-8.41 11.48-15.06 19.89-19.92s17.75-7.28 28.02-7.28c10.22 0 19.54 2.44 27.95 7.33s15.06 11.51 19.92 19.89 7.28 17.63 7.28 27.7c0 10.02-2.42 19.24-7.28 27.67s-11.51 15.13-19.94 20.07c-8.44 4.94-17.75 7.4-27.93 7.4zm0-26.06c4.89 0 9.44-1.29 13.67-3.83s7.6-6.04 10.12-10.5 3.78-9.34 3.78-14.68-1.26-10.22-3.8-14.66c-2.54-4.43-5.94-7.93-10.17-10.47s-8.77-3.8-13.6-3.8c-4.89 0-9.44 1.26-13.67 3.8s-7.6 6.04-10.15 10.47c-2.54 4.43-3.83 9.32-3.83 14.66s1.28 10.22 3.83 14.66q3.81 6.645 10.2 10.5c4.26 2.57 8.79 3.85 13.62 3.85m136.86-13.75c-3.02 1.71-6.22 3.12-9.59 4.26-3.38 1.13-7.46 1.71-12.24 1.71-8.11 0-15.03-1.66-20.8-4.96s-10.15-7.88-13.14-13.75c-3-5.87-4.51-12.57-4.51-20.12v-35.35h27.27v31.05c0 5.84 1.26 10.2 3.78 13.07s6.57 4.31 12.16 4.31c3.63 0 6.8-.63 9.52-1.86s5.24-2.64 7.55-4.26v-42.3h27.19v106.14h-27.19v-37.92zm83.15 37.92h-27.19v-106.14h27.19v37.62h38.75v-37.62h27.19v106.14h-27.19v-42.53h-38.75zm94.71 0v-106.14h27.42v34.37h16.24q11.64 0 20.22 4.68c5.72 3.12 10.07 7.4 13.09 12.84q4.53 8.16 4.53 18.51c0 6.8-1.56 12.92-4.68 18.35-3.12 5.44-7.58 9.7-13.37 12.77s-12.52 4.61-20.17 4.61h-43.28zm40.72-24.17c3.68 0 6.72-1.08 9.14-3.23 2.42-2.14 3.63-4.94 3.63-8.41 0-2.17-.55-4.16-1.69-5.94-1.13-1.79-2.69-3.2-4.66-4.23-1.96-1.03-4.13-1.54-6.49-1.54h-13.22v23.35h13.3zm82.72 24.17h-27.19v-106.14h27.19zm50.75 0h-31.96l34.82-54.09-32.71-52.05h32.25l17.3 31.65 16.92-31.65h32.41l-31.58 52.05 33.84 54.09h-32.11l-19.56-34.45-19.64 34.45zm148.8 0h-27.5l13.67-106.14h30.52l18.96 68.52 18.89-68.52h30.59l13.75 106.21h-27.57l-6.65-62.55-17 62.47h-23.72l-17-62.47-6.95 62.47zm217.92 0h-28.02l-5.67-16.62h-38.07l-5.66 16.62h-28.03l40.94-106.29h23.79zm-53.94-69.04-10.12 29.76h22.74l-10.12-29.76-1.21-4.84h-.15l-1.13 4.84zm110.87 69.04h-27.19v-80.83h-28.48v-25.31h84.23v25.31h-28.56zm129.54 0h-78.26v-106.14h77.13v24.55h-49.93v16.55h39.05v22.89h-39.05v17.6h51.07v24.55zm23.55 0v-106.14h43.89c7.66 0 14.38 1.54 20.15 4.61s10.22 7.3 13.37 12.72c3.15 5.41 4.71 11.53 4.71 18.33 0 7.35-1.51 13.83-4.54 19.41-3.02 5.59-7.38 9.92-13.09 13.02-5.72 3.09-12.49 4.66-20.29 4.66h-17v33.39h-27.19zm42-57.94q3.63 0 6.57-1.59c1.96-1.06 3.52-2.54 4.66-4.43s1.69-3.98 1.69-6.3c0-2.22-.55-4.18-1.69-5.89-1.13-1.71-2.67-3.05-4.61-4-1.94-.96-4.13-1.44-6.55-1.44h-14.88v23.65zm153.71-48.2v106.14h-26.44v-63.31l-41.55 63.31h-24.63v-106.14h26.44v59.98l38.98-59.98h27.19zm124.4 106.14h-28.02l-5.67-16.62h-38.07l-5.66 16.62h-28.03l40.94-106.29h23.79zm-53.94-69.04-10.12 29.76h22.74l-10.12-29.76-1.21-4.84h-.15l-1.13 4.84zm75.07 70.4c-1.51 0-2.89-.08-4.15-.23q-1.89-.225-4.53-.75l-2.87-.45v-24.63c3.43.46 6.15.68 8.16.68 4.63 0 8.01-3.12 10.12-9.37 2.12-6.24 3.43-14.73 3.93-25.46.51-10.72.75-26.49.75-47.29h82.49v106.14h-27.5v-80.83h-29.46c0 16.06-.68 29.74-2.06 41.04-1.38 11.31-4.78 21-10.2 29.06-5.41 8.06-13.65 12.09-24.68 12.09m172.67.53c-10.22 0-19.54-2.47-27.98-7.4-8.44-4.94-15.08-11.61-19.94-20.02s-7.3-17.65-7.3-27.72 2.44-19.32 7.3-27.72c4.86-8.41 11.48-15.06 19.89-19.92s17.75-7.28 28.02-7.28c10.22 0 19.54 2.44 27.95 7.33s15.06 11.51 19.92 19.89 7.28 17.63 7.28 27.7c0 10.02-2.42 19.24-7.28 27.67s-11.51 15.13-19.94 20.07c-8.44 4.94-17.75 7.4-27.93 7.4zm0-26.06c4.89 0 9.44-1.29 13.67-3.83s7.6-6.04 10.12-10.5 3.78-9.34 3.78-14.68-1.26-10.22-3.8-14.66c-2.54-4.43-5.94-7.93-10.17-10.47s-8.77-3.8-13.6-3.8c-4.89 0-9.44 1.26-13.67 3.8s-7.6 6.04-10.15 10.47c-2.54 4.43-3.83 9.32-3.83 14.66s1.28 10.22 3.83 14.66q3.81 6.645 10.2 10.5c4.26 2.57 8.79 3.85 13.62 3.85m78.7 24.17v-106.14h43.81c7.15 0 13.42 1.18 18.81 3.55s9.55 5.74 12.47 10.12 4.38 9.52 4.38 15.41q0 4.305-1.59 8.46c-1.06 2.77-2.49 5.19-4.31 7.25-1.81 2.06-3.8 3.55-5.97 4.46 3.22 1.11 6.12 2.95 8.66 5.54s4.51 5.64 5.92 9.14 2.11 7.18 2.11 11.01c0 6.45-1.54 12.01-4.63 16.72-3.1 4.71-7.38 8.31-12.84 10.78s-11.69 3.7-18.63 3.7h-48.2zm41.55-65.04c3.22 0 5.81-.91 7.78-2.69 1.96-1.79 2.95-3.98 2.95-6.6 0-2.52-.91-4.58-2.75-6.17s-4.28-2.37-7.3-2.37h-15.03v17.83zm4.38 42.38c3.32 0 5.99-1.06 8.01-3.15 2.01-2.09 3.02-4.83 3.02-8.26 0-1.91-.48-3.7-1.46-5.36s-2.39-3-4.23-4.01c-1.84-1-3.95-1.51-6.32-1.51h-17.75v22.29z" style="fill:#196cb3;fill-rule:nonzero"/></g></g></svg>